# xmcd CD database file
#
# Track frame offsets:
#	150
#	11755
#	26352
#	37729
#	47793
#	57930
#	71110
#	83861
#	101427
#	109003
#	118615
#	131009
#	141279
#	150832
#
# Disc length: 2180 seconds
#
# Revision: 0
# Processed by: cddbd v1.5.1PL0 Copyright (c) Steve Scherf et al.
# Submitted via: CDex 1.51
#
DISCID=b008820e
DTITLE=Bola de Nieve - La Flor De La Canela
DYEAR=1900
DGENRE=Jazz
TTITLE0=Chivo Que Rompe Tambo
TTITLE1=No Puedo Ser Feliz
TTITLE2=Ay, Amor
TTITLE3=Vete De Mi
TTITLE4=La Flor De La Camela
TTITLE5=Si Me Pudieras Querer
TTITLE6=Tu Me Has De Querer
TTITLE7=No Dejes Que To Olvide
TTITLE8=No Quiero Que Me La Dejaste Querer
TTITLE9=Por Que Me La Dejaste Querer
TTITLE10=Alma Mia
TTITLE11=No Niegues Que Me Quisiste
TTITLE12=Ausencia
TTITLE13=Drume Negrita
EXTD=
EXTT0=
EXTT1=
EXTT2=
EXTT3=
EXTT4=
EXTT5=
EXTT6=
EXTT7=
EXTT8=
EXTT9=
EXTT10=
EXTT11=
EXTT12=
EXTT13=
PLAYORDER=
